<?xml version="1.0" encoding="UTF-8" standalone="no"?>
<!-- Created with Inkscape (http://www.inkscape.org/) -->

<svg
   version="1.1"
   id="svg1"
   width="1028.7134"
   height="866.8949"
   viewBox="0 0 1028.7134 866.8949"
   sodipodi:docname="logo.svg"
   inkscape:version="1.4.2 (ebf0e940, 2025-05-08)"
   xmlns:inkscape="http://www.inkscape.org/namespaces/inkscape"
   xmlns:sodipodi="http://sodipodi.sourceforge.net/DTD/sodipodi-0.dtd"
   xmlns="http://www.w3.org/2000/svg"
   xmlns:svg="http://www.w3.org/2000/svg">
  <defs
     id="defs1" />
  <sodipodi:namedview
     id="namedview1"
     pagecolor="#ffffff"
     bordercolor="#000000"
     borderopacity="0.25"
     inkscape:showpageshadow="2"
     inkscape:pageopacity="0.0"
     inkscape:pagecheckerboard="0"
     inkscape:deskcolor="#d1d1d1"
     showgrid="false"
     inkscape:zoom="0.34606686"
     inkscape:cx="147.37037"
     inkscape:cy="245.61728"
     inkscape:window-width="1920"
     inkscape:window-height="1021"
     inkscape:window-x="0"
     inkscape:window-y="31"
     inkscape:window-maximized="1"
     inkscape:current-layer="g1" />
  <g
     inkscape:groupmode="layer"
     inkscape:label="Image"
     id="g1"
     transform="translate(-275.95305,-88.128064)">
    <g
       id="g111"
       style="fill:#249254;fill-opacity:1">
      <path
         style="display:inline;fill:#249254;fill-opacity:1"
         d="m 1074.8817,628.6689 c -2.1938,-0.81408 -12.1978,-9.18235 -25.4106,-21.25579 -11.9857,-10.95221 -24.0825,-21.88982 -26.8817,-24.30579 -2.7992,-2.41598 -9.4705,-8.43486 -14.8252,-13.3753 l -9.73582,-8.98261 12.64442,-13.12471 c 6.9544,-7.21858 13.2259,-13.1247 13.9367,-13.1247 0.7108,0 6.5787,4.725 13.0397,10.5 6.461,5.775 21.2206,19.04194 32.799,29.48208 11.5785,10.44014 22.7026,20.65806 24.7203,22.70648 2.6322,2.67219 4.0036,5.22144 4.8544,9.02335 0.8928,3.98918 0.9064,6.33688 0.055,9.49806 -0.6219,2.3095 -2.2975,5.58572 -3.7235,7.28048 -1.4261,1.69476 -3.8189,3.71539 -5.3173,4.49028 -1.4985,0.77489 -4.9324,1.66133 -7.6309,1.96987 -3.0095,0.34409 -6.3053,0.0419 -8.5247,-0.7817 z M 826.5,622.30147 c -1.65,-0.21938 -5.25,-1.12262 -8,-2.0072 -2.75,-0.88458 -20.63454,-9.41266 -39.74342,-18.9513 L 744.01316,584 h -7.82508 c -4.30379,0 -10.11347,-0.67958 -12.91039,-1.51018 -2.79693,-0.83059 -7.79962,-3.50832 -11.11709,-5.95051 -3.31747,-2.44218 -8.24661,-5.56268 -10.95363,-6.93443 -2.70702,-1.37175 -6.34483,-3.69145 -8.08403,-5.15488 -1.73919,-1.46344 -4.23358,-4.52586 -5.54309,-6.8054 -1.30951,-2.27953 -3.10069,-7.38343 -3.98039,-11.34201 C 682.71976,542.34402 682,537.27038 682,535.02784 c 0,-3.52705 -0.37115,-4.21891 -2.75,-5.1263 -1.5125,-0.57692 -4.83976,-1.29781 -7.39391,-1.60197 -4.21208,-0.5016 -4.80512,-0.307 -6.3775,2.09276 -1.46935,2.24251 -1.62748,4.002 -1.0375,11.54376 0.56796,7.26025 0.39514,9.47992 -0.93893,12.05972 -0.92307,1.78504 -3.08509,3.76763 -4.96529,4.55323 -2.76876,1.15686 -4.16179,1.1758 -8.26167,0.1123 -2.71226,-0.70355 -8.04624,-3.31877 -11.85329,-5.81159 -3.80705,-2.49282 -11.63186,-6.29131 -17.38846,-8.44108 -7.09943,-2.65124 -11.50738,-4.94946 -13.70192,-7.14392 -1.83075,-1.83069 -3.52205,-4.76341 -3.89571,-6.75516 -0.36318,-1.93595 -0.10267,-6.47543 0.57893,-10.08774 0.70547,-3.73889 0.86151,-6.90456 0.36225,-7.34959 -0.48235,-0.42996 -13.702,-4.03878 -29.377,-8.01961 -19.33382,-4.91002 -30.35522,-8.22089 -34.26834,-10.29436 -3.17259,-1.68107 -7.28073,-4.73052 -9.1292,-6.77656 -1.84848,-2.04604 -4.31522,-6.27083 -5.48166,-9.38841 -1.16644,-3.11759 -2.12302,-6.88896 -2.12574,-8.38083 -0.003,-1.49187 -1.13047,-12.16249 -2.50613,-23.71249 -1.37565,-11.55 -3.65299,-28.57775 -5.06076,-37.83945 -1.40777,-9.26169 -2.77494,-17.36169 -3.03814,-18 -0.26321,-0.6383 -4.17114,-3.85965 -8.6843,-7.15856 -4.51315,-3.29891 -10.09526,-7.72254 -12.40468,-9.8303 -2.30942,-2.10777 -4.72206,-5.41732 -5.36141,-7.35457 -0.64408,-1.9516 -0.87865,-5.29709 -0.52601,-7.50234 0.35004,-2.18904 1.80616,-6.30538 3.23583,-9.14742 1.42967,-2.84205 4.40405,-8.22061 6.60973,-11.95236 l 4.01033,-6.785 -0.68175,-7.715 c -0.37497,-4.24325 -1.8117,-15.78219 -3.19274,-25.64209 -1.49589,-10.6798 -2.24751,-19.48658 -1.85925,-21.7847 0.35846,-2.12169 1.79317,-5.21412 3.18824,-6.87208 1.39508,-1.65795 4.61538,-4.06567 7.15624,-5.35049 2.54086,-1.28483 12.26974,-4.83468 21.61974,-7.88856 9.35,-3.05388 23.975,-7.5931 32.5,-10.08714 8.525,-2.49405 17.97276,-5.13711 20.99503,-5.87347 l 5.49503,-1.33883 0.75348,-5.23559 c 0.41441,-2.87957 1.38639,-6.45204 2.15995,-7.93882 0.77357,-1.48678 2.46628,-3.69275 3.76158,-4.90216 1.29531,-1.20941 5.02117,-3.37799 8.2797,-4.81906 3.25852,-1.44108 16.52898,-6.17265 29.48991,-10.51461 13.01017,-4.35845 27.82047,-8.62901 33.06532,-9.53439 5.9204,-1.02201 12.7028,-1.47756 18,-1.209 5.84154,0.29616 10.09739,1.12974 13.6074,2.66526 2.80906,1.22888 6.72479,3.89402 8.70162,5.92253 2.22833,2.2866 5.30645,7.63665 8.09982,14.07821 2.47808,5.71451 5.49103,11.43895 6.69543,12.72098 1.20441,1.28203 3.75202,2.84654 5.66136,3.47668 1.90934,0.63014 5.44573,0.92318 7.85865,0.65121 2.8887,-0.3256 7.37374,-2.28137 13.13142,-5.72616 5.50079,-3.29109 10.87701,-5.66831 14.49395,-6.40882 3.56436,-0.72975 8.69535,-0.91603 13.5,-0.49012 4.26269,0.37787 16.52535,2.73301 27.25035,5.23364 10.725,2.50063 25.75122,5.74599 33.3916,7.21191 l 13.89159,2.66532 44.78287,-1.17121 c 32.85883,-0.85936 45.87845,-0.8762 48.89756,-0.0632 2.26309,0.60939 5.44165,2.32339 7.06347,3.80889 1.9306,1.76832 5.37208,8.21468 9.96702,18.66957 3.86004,8.78276 8.17385,19.80776 9.58626,24.5 1.4124,4.69224 5.26748,16.85634 8.56684,27.03134 4.35462,13.42936 6.00623,20.0332 6.02581,24.09382 0.0178,3.67956 -0.66282,6.94594 -1.98873,9.54495 -1.10865,2.17312 -3.96615,5.73906 -6.35,7.92431 -2.38386,2.18526 -7.14435,6.12695 -10.57886,8.75932 -3.5705,2.7366 -6.50743,5.83345 -6.85841,7.23187 -0.48926,1.94937 -1.25141,2.44296 -3.75543,2.43208 -1.72787,-0.008 -4.15409,-0.285 -5.39159,-0.61664 -1.2375,-0.33163 -2.25,-1.35069 -2.25,-2.26456 0,-0.91387 1.0125,-3.07567 2.25,-4.80399 1.2375,-1.72832 6.82274,-6.57143 12.41165,-10.76246 5.5889,-4.19104 10.88804,-8.72869 11.77585,-10.08366 0.88782,-1.35498 1.87678,-3.77642 2.19769,-5.38099 0.42306,-2.11532 -1.95561,-10.56811 -8.65207,-30.74572 C 959.90357,289.02275 953.50653,270.65 950.76748,263.5 c -2.73905,-7.15 -5.63715,-14.27295 -6.44021,-15.82878 -0.80306,-1.55583 -2.9096,-3.43441 -4.68121,-4.17464 -2.62309,-1.096 -8.87661,-1.18109 -33.68358,-0.45836 -16.75437,0.48812 -38.21575,0.90421 -47.69197,0.92464 L 841.04102,244 824.27051,240.48313 C 815.04673,238.54884 800.525,235.32107 792,233.31029 c -10.65042,-2.5121 -17.86713,-3.65772 -23.0657,-3.66156 -5.87842,-0.004 -8.63483,0.51198 -12.35966,2.31514 -3.64541,1.76471 -6.19883,4.21546 -10.65782,10.2293 -3.22512,4.34973 -6.65035,9.24001 -7.61161,10.86729 -0.96126,1.62728 -2.04592,2.84189 -2.41037,2.69912 -0.36444,-0.14277 -2.93555,-2.99038 -5.71357,-6.32801 -3.65773,-4.39458 -6.19035,-6.44448 -9.18177,-7.43174 -2.27196,-0.74981 -6.05619,-3.05806 -8.40941,-5.12944 -2.66643,-2.34709 -4.95812,-5.57555 -6.08211,-8.56827 -0.99194,-2.64117 -3.52086,-8.24746 -5.61981,-12.45843 -2.24132,-4.49659 -5.05743,-8.54009 -6.8237,-9.79778 -1.65408,-1.17781 -5.60776,-2.57656 -8.78595,-3.10833 C 682.10034,202.40582 677.025,202.2315 674,202.5502 c -3.025,0.31871 -7.975,1.03613 -11,1.59428 -3.025,0.55814 -17.875,5.08672 -33,10.06351 -15.125,4.97679 -28.67412,9.64473 -30.10915,10.3732 -1.43503,0.72847 -3.18361,2.71137 -3.88573,4.40645 -0.7959,1.92147 -1.07752,5.27728 -0.74792,8.91221 l 0.52867,5.83025 -39.14293,11.75271 c -21.52862,6.46399 -41.52477,12.63928 -44.4359,13.72287 -2.91112,1.08359 -6.17362,2.91545 -7.25,4.0708 -1.28847,1.38301 -1.94919,3.48813 -1.93406,6.16208 0.0126,2.23379 0.9237,9.91144 2.02458,17.06144 1.10088,7.15 2.25841,18.85 2.5723,26 l 0.57072,13 -3.74788,6 c -2.06133,3.3 -5.02105,8.25 -6.57717,11 -1.64949,2.91502 -2.83685,6.51754 -2.84741,8.63922 -0.0103,2.06791 0.73748,4.4937 1.73188,5.61824 0.9625,1.08847 6.97342,5.813 13.35759,10.49895 l 11.60759,8.51991 2.16154,13.86184 c 1.18885,7.62401 3.91194,27.95275 6.05131,45.17498 3.54977,28.5761 4.11699,31.65651 6.4894,35.24146 1.42981,2.16058 4.2833,5.04091 6.34111,6.40073 2.22807,1.47235 10.6178,4.30598 20.74146,7.00542 9.35,2.49316 24.425,6.40232 33.5,8.68702 9.075,2.28471 16.66897,4.29258 16.8755,4.46195 0.20652,0.16937 -0.40151,4.62334 -1.35119,9.89772 -1.41933,7.8828 -1.50625,10.12194 -0.48834,12.57939 0.68108,1.64428 2.09739,3.44936 3.14736,4.01128 1.04996,0.56193 6.27574,2.60163 11.61285,4.53268 5.44955,1.97173 11.89588,5.16197 14.70382,7.27681 2.75,2.07119 5.98292,4.28929 7.18426,4.92911 1.20134,0.63981 3.28374,1.16329 4.62755,1.16329 1.34382,0 2.97709,-0.64318 3.6295,-1.42928 0.88935,-1.07161 0.91999,-2.86932 0.12244,-7.18366 C 656.47869,539.22215 656,534.10018 656,531.0049 c 0,-4.19932 0.49544,-6.15957 1.95192,-7.72292 1.07356,-1.15233 3.43606,-2.56917 5.25,-3.14855 2.5079,-0.80102 5.75571,-0.63331 13.55578,0.69999 6.47733,1.10721 10.8943,2.39001 11.98506,3.48077 1.29656,1.29656 1.897,4.25208 2.40749,11.85028 0.55982,8.33242 1.1864,11.11288 3.54253,15.71992 l 2.86242,5.59701 9.4724,5.0093 c 5.20982,2.75512 10.8224,6.29669 12.4724,7.87017 1.65,1.57348 4.08997,3.27929 5.42215,3.7907 1.33219,0.51141 6.44186,0.93622 11.35483,0.94403 l 8.93268,0.0142 18.64517,8.82993 c 10.25484,4.85645 27.69301,13.33063 38.75148,18.83149 13.66236,6.79613 21.72552,10.22428 25.15852,10.69644 3.40323,0.46806 7.04894,0.18332 11.16986,-0.87242 3.36471,-0.862 8.46838,-3.09858 11.34148,-4.97018 2.87311,-1.8716 8.82383,-7.08573 13.22383,-11.58694 4.4,-4.50121 9.16378,-9.02934 10.58617,-10.06251 l 2.58617,-1.87848 4.8144,1.44892 c 3.3457,1.00691 5.19324,1.13451 6.05624,0.41828 0.68302,-0.56685 1.76967,-2.30492 2.41478,-3.86236 l 1.17294,-2.83173 8.15757,2.70967 8.15758,2.70968 3.52707,8.72113 c 1.9399,4.79662 4.47446,9.78159 5.63237,11.0777 1.15791,1.29611 3.9585,2.85558 6.22353,3.46549 2.95214,0.79493 6.6033,0.81425 12.8947,0.0683 4.82707,-0.57236 11.88141,-2.01461 15.67632,-3.20499 3.79491,-1.19038 8.74233,-3.56965 10.99427,-5.28726 2.25194,-1.71761 5.10211,-4.902 6.33371,-7.07642 1.31531,-2.32221 2.24607,-5.67512 2.25573,-8.12594 l 0.0164,-4.1725 3.61882,-1.19431 c 2.94465,-0.97183 3.79113,-0.9397 4.54375,0.17244 0.50871,0.75173 0.76941,3.87997 0.57932,6.95166 -0.2172,3.50965 -1.38783,7.71507 -3.15042,11.31769 -1.9292,3.94313 -4.25437,6.79087 -7.44814,9.12206 -2.55383,1.86409 -7.11833,4.31472 -10.14333,5.44586 -3.025,1.13113 -8.65,2.71769 -12.5,3.52569 -3.85,0.80799 -11.17695,1.4769 -16.28212,1.48645 -6.12634,0.0115 -10.5337,-0.50558 -12.9634,-1.52078 -2.02471,-0.84597 -4.53446,-2.30847 -5.57723,-3.25 C 910.63449,611.27034 908.52972,608.025 907,605 c -1.52972,-3.025 -3.70088,-6.33043 -4.8248,-7.34539 -1.12392,-1.01496 -3.31062,-1.8923 -4.85934,-1.94964 -1.54873,-0.0573 -6.74694,-0.0144 -11.55159,0.0954 L 877.02855,596 l -10.39038,9.86877 c -6.60501,6.27342 -12.37954,10.80979 -15.8504,12.45177 -3.00302,1.42065 -8.34627,3.05131 -11.8739,3.62368 -3.52763,0.57237 -7.08887,0.97665 -7.91387,0.89839 -0.825,-0.0783 -2.85,-0.32177 -4.5,-0.54114 z m -2,-22.10585 c -2.2,-0.93259 -18.28373,-8.87809 -35.74162,-17.65666 l -31.74162,-15.96103 2.83549,-3.03897 C 761.41177,561.86753 772.31502,549.475 784.0817,536 c 11.76667,-13.475 24.94894,-28.2125 29.29394,-32.75 4.345,-4.5375 8.40229,-8.25 9.01619,-8.25 0.61391,0 2.31187,4.66786 3.77324,10.37303 1.46137,5.70517 4.25481,13.83119 6.20764,18.05784 1.95283,4.22664 5.6909,10.90427 8.30682,14.83918 2.61592,3.93491 7.63082,10.20161 11.14422,13.926 3.5134,3.72438 9.49036,9.07148 13.28212,11.88244 3.79177,2.81095 6.89413,5.21861 6.89413,5.35035 0,0.13174 -6.36782,6.84185 -14.1507,14.91136 -12.53651,12.99818 -14.72458,14.84225 -19.18151,16.16581 -2.76693,0.8217 -6.18662,1.46952 -7.59929,1.43961 -1.41268,-0.0299 -4.3685,-0.81741 -6.5685,-1.75 z m 102.92673,-2.87819 c -1.25963,-0.24923 -2.92752,-2.16851 -4.25,-4.89057 -1.1972,-2.4642 -2.17673,-4.60251 -2.17673,-4.7518 0,-0.14929 5.9625,-0.32918 13.25,-0.39975 7.2875,-0.0706 15.725,-0.566 18.75,-1.10096 3.025,-0.53496 5.66159,-0.81894 5.85909,-0.63108 0.1975,0.18787 -0.57729,1.65661 -1.72175,3.26386 -1.14447,1.60726 -4.26057,3.85997 -6.92468,5.00604 -2.6641,1.14606 -7.73931,2.55355 -11.27824,3.12774 -3.53893,0.57419 -7.10942,0.9861 -7.93442,0.91535 -0.825,-0.0707 -2.43297,-0.31322 -3.57327,-0.53883 z M 919.5,576.8915 c -3.3,-0.47554 -9.99493,-2.00638 -14.87762,-3.40186 -4.88268,-1.39548 -12.17542,-4.12342 -16.20607,-6.06209 -4.03065,-1.93866 -10.13407,-5.59022 -13.56315,-8.11456 -3.42908,-2.52435 -8.47006,-6.66496 -11.20218,-9.20136 -2.73211,-2.53639 -7.58308,-7.88701 -10.77992,-11.89026 -3.19684,-4.00325 -7.84573,-11.42825 -10.33085,-16.5 C 840.05509,516.64962 836.83874,508 835.39277,502.5 c -2.18454,-8.30927 -2.651,-12.36702 -2.75892,-24 -0.0972,-10.47883 0.33542,-15.98745 1.72016,-21.90201 1.01753,-4.3461 2.94012,-10.79806 4.27244,-14.3377 1.33231,-3.53963 3.37474,-8.30873 4.53872,-10.59799 1.16399,-2.28927 3.93303,-6.8623 6.15342,-10.1623 2.2204,-3.3 7.21956,-9.31161 11.10925,-13.35914 3.88969,-4.04753 9.77216,-9.28288 13.07216,-11.63412 3.3,-2.35123 9.6,-6.07367 14,-8.27209 4.4,-2.19841 11.6,-5.12149 16,-6.49572 4.4,-1.37424 12.6678,-3.06008 18.37288,-3.74632 6.31935,-0.76013 13.7442,-0.97514 19,-0.55021 4.74492,0.38362 12.40426,1.57702 17.02075,2.65201 4.6165,1.07498 11.98797,3.53485 16.38104,5.46637 4.39307,1.93152 11.19093,5.58288 15.10636,8.11414 3.91543,2.53126 9.96118,7.09596 13.43497,10.14377 3.4738,3.04781 9.0259,9.17294 12.338,13.61139 3.3121,4.43846 7.9815,12.11992 10.3766,17.06992 2.395,4.95 5.3179,12.6 6.4953,17 1.4876,5.55946 2.3048,12.30083 2.6787,22.09796 0.4194,10.98805 0.1633,15.95139 -1.1611,22.5 -0.9345,4.62112 -3.1752,12.33591 -4.9792,17.14398 -1.804,4.80806 -5.4815,12.39597 -8.1722,16.86202 -2.6906,4.46605 -7.5921,11.07747 -10.8921,14.69204 -3.3,3.61458 -9.6,9.25895 -14,12.54304 -4.4,3.2841 -12.11562,7.93273 -17.14582,10.33029 -5.0302,2.39756 -12.60131,5.24297 -16.8247,6.32313 -4.22338,1.08016 -11.34596,2.42374 -15.82794,2.98573 -4.48199,0.562 -10.86088,0.96694 -14.17531,0.89987 C 928.21181,577.81099 922.8,577.36704 919.5,576.8915 Z M 952,557.36206 c 4.125,-0.84166 10.73603,-2.87342 14.69119,-4.51501 3.95515,-1.64159 10.25515,-5.13885 14,-7.77169 3.74484,-2.63284 9.80557,-7.96711 13.46827,-11.85393 3.6627,-3.88683 8.55704,-10.26103 10.87624,-14.1649 2.3193,-3.90387 5.5232,-10.88793 7.1198,-15.52013 1.5967,-4.6322 3.3861,-12.37139 3.9765,-17.1982 0.7844,-6.41253 0.7639,-11.20822 -0.076,-17.80711 -0.6322,-4.9671 -2.4217,-12.73427 -3.9765,-17.26038 -1.5548,-4.52611 -4.7121,-11.40237 -7.016,-15.28057 -2.304,-3.87819 -6.95208,-10.00486 -10.32901,-13.61482 -3.37693,-3.60995 -8.93304,-8.55671 -12.34691,-10.99279 -3.41387,-2.43609 -9.51015,-5.9415 -13.5473,-7.78982 C 964.80312,401.7444 958.8,399.40925 955.5,398.40349 c -4.67618,-1.42518 -9.41987,-1.8369 -21.5,-1.86607 -13.52617,-0.0326 -16.4488,0.26053 -22.95067,2.30232 -4.09787,1.28685 -10.87776,4.06284 -15.06643,6.16886 -4.18866,2.10601 -10.73586,6.32739 -14.54932,9.38083 -3.81347,3.05345 -9.07358,8.21459 -11.68914,11.46922 -2.61556,3.25463 -6.30947,8.49804 -8.20871,11.65202 -1.89923,3.15399 -4.57334,9.16685 -5.94246,13.36193 -1.36913,4.19507 -3.02543,10.46111 -3.68068,13.92454 -0.72062,3.80901 -0.97783,10.52606 -0.65096,17 0.3879,7.68252 1.30243,13.10155 3.24074,19.20286 1.48519,4.675 4.22817,11.425 6.09552,15 1.86735,3.575 5.41681,9.07284 7.8877,12.21742 2.47089,3.14459 7.75995,8.44057 11.75347,11.76886 3.99351,3.32828 10.7831,7.83421 15.08796,10.01317 4.30486,2.17895 10.98599,4.90252 14.84695,6.05236 3.86096,1.14985 9.7888,2.47727 13.17298,2.94983 3.38418,0.47256 9.52805,0.64129 13.65305,0.37496 4.125,-0.26634 10.875,-1.17288 15,-2.01454 z m -30.50013,-10.37682 c -2.20007,-0.4376 -6.92507,-1.7758 -10.5,-2.97379 -3.57493,-1.19798 -8.9146,-3.55355 -11.86594,-5.2346 -2.95134,-1.68104 -7.9449,-5.20257 -11.0968,-7.82561 -3.15191,-2.62305 -7.87556,-7.62242 -10.49702,-11.10972 -2.62145,-3.48731 -6.24661,-9.28011 -8.05591,-12.87289 -1.8093,-3.59279 -3.78885,-8.3863 -4.39901,-10.65224 -0.61015,-2.26595 -1.54599,-7.56363 -2.07964,-11.77262 -0.65087,-5.13356 -0.62351,-10.18596 0.0831,-15.34824 0.57936,-4.23254 2.11457,-10.7711 3.41157,-14.53013 1.297,-3.75904 3.85254,-9.38404 5.67897,-12.5 1.82644,-3.11597 7.14579,-9.50245 11.82079,-14.19217 6.37567,-6.39575 10.49937,-9.55331 16.5,-12.63423 4.4,-2.2591 10.94107,-4.83138 14.53572,-5.71616 3.59465,-0.88479 9.30607,-1.89827 12.69205,-2.25218 l 6.15633,-0.64346 -0.53564,2.3864 c -0.2946,1.31252 -1.43021,5.1989 -2.52358,8.6364 -1.09337,3.4375 -2.51375,6.24229 -3.15641,6.23286 -0.64266,-0.009 -4.50086,-0.88253 -8.57378,-1.94023 l -7.40531,-1.9231 -4.58873,2.33206 -4.58873,2.33205 13.49404,4.25397 c 7.42172,2.33968 14.01744,4.66101 14.65714,5.1585 0.63971,0.4975 2.70666,3.4694 4.59321,6.60422 1.88656,3.13482 8.05226,13.34967 13.70156,22.69967 5.6493,9.35 12.08145,19.82591 14.29367,23.2798 2.21221,3.45388 3.84811,6.42982 3.63533,6.61318 -0.21278,0.18336 -11.41205,3.99496 -24.88727,8.4702 -13.47522,4.47525 -25.62522,8.11585 -27,8.09021 -1.37478,-0.0256 -10.8246,-3.11048 -20.9996,-6.85522 -10.175,-3.74473 -18.64381,-6.69245 -18.81957,-6.55049 -0.17576,0.14197 0.62526,2.43932 1.78004,5.10522 l 2.09961,4.8471 11.71996,4.27459 c 6.44598,2.35103 14.81604,5.27433 18.60014,6.49622 l 6.88018,2.22162 26.11982,-8.88293 c 14.3659,-4.88561 26.62326,-9.07189 27.23858,-9.30284 0.61532,-0.23095 1.8118,1.31214 2.65883,3.4291 0.84704,2.11695 2.08965,6.64243 2.76135,10.05662 0.6717,3.41419 1.57771,6.20762 2.01336,6.20762 0.43565,0 2.59207,-2.1058 4.79205,-4.67955 l 3.99995,-4.67955 -3.42215,-6.79549 C 980.53997,501.1079 979,497.85822 979,497.62391 c 0,-0.23431 2.69266,-2.75871 5.98369,-5.60978 l 5.98368,-5.18375 2.15265,3.64847 c 1.18396,2.00666 2.48012,3.28233 2.88036,2.83481 0.40023,-0.44751 1.23888,-2.92543 1.86366,-5.50648 0.62478,-2.58105 1.12026,-9.33105 1.10107,-15 -0.0192,-5.66895 -0.64869,-13.68218 -1.39889,-17.80718 -0.7502,-4.125 -2.29351,-9.6375 -3.42957,-12.25 -1.13607,-2.6125 -1.88959,-4.75 -1.6745,-4.75 0.21509,0 1.72645,2.3625 3.35859,5.25 1.63213,2.8875 4.19126,8.625 5.68696,12.75 2.1572,5.9495 2.8251,9.87743 3.2304,19 0.3855,8.67671 0.1118,13.09577 -1.1147,18 -0.894,3.575 -3.69858,10.72082 -6.23232,15.8796 -3.55124,7.23045 -6.24328,11.03903 -11.74894,16.62186 -3.92818,3.98324 -10.00152,9.08513 -13.49632,11.33753 -3.4948,2.2524 -8.85864,5.03231 -11.91965,6.17758 -3.06101,1.14527 -8.66855,2.73506 -12.4612,3.53287 -3.79265,0.79781 -10.3538,1.40126 -14.58035,1.34099 -4.22654,-0.0603 -9.48468,-0.4676 -11.68475,-0.90519 z M 956.23014,462.75 c -9.82683,-14.4375 -17.79673,-26.36445 -17.71088,-26.50434 0.0858,-0.13988 1.57261,0.45233 3.30393,1.31602 1.73132,0.8637 12.04187,10.78045 22.91233,22.03723 10.87046,11.25678 19.84613,20.78958 19.94592,21.18398 0.0998,0.39441 -1.84345,2.40461 -4.31831,4.46711 -2.47486,2.0625 -4.89716,3.75 -5.38289,3.75 -0.48572,0 -8.92327,-11.8125 -18.7501,-26.25 z m -17.82778,-40.35615 c 0.36597,-0.9537 1.11666,-3.79497 1.6682,-6.31392 0.55154,-2.51896 1.2585,-5.42063 1.57103,-6.44816 0.47622,-1.5657 1.28794,-1.7871 5.01272,-1.36727 2.44447,0.27553 4.65637,0.71284 4.91533,0.97181 0.25897,0.25897 -0.85026,3.57424 -2.46495,7.36727 l -2.9358,6.89642 -4.21596,0.31392 c -3.65403,0.27209 -4.12728,0.0828 -3.55057,-1.42007 z M 726.9944,559.49532 c -2.30716,-1.92757 -8.16149,-5.55338 -13.00963,-8.05735 -4.84814,-2.50396 -9.11442,-5.31436 -9.48061,-6.24532 -0.3662,-0.93096 -0.91637,-5.96765 -1.22261,-11.19265 -0.36532,-6.23309 -1.18216,-10.74631 -2.37533,-13.12421 -1.00018,-1.99331 -3.18582,-4.77472 -4.85697,-6.1809 -1.67115,-1.40618 -3.82839,-2.79219 -4.79385,-3.08003 -0.96547,-0.28783 -5.8054,-1.21749 -10.7554,-2.0659 -4.95,-0.84841 -11.37695,-1.54401 -14.28212,-1.54577 -2.90516,-0.002 -6.73016,0.60362 -8.5,1.34527 -1.76983,0.74166 -4.74441,2.63554 -6.61018,4.20863 -1.86576,1.57309 -4.21838,4.67879 -5.22804,6.90154 -1.00965,2.22275 -1.84562,5.77701 -1.8577,7.89836 -0.0154,2.7069 -0.39469,3.69285 -1.27196,3.30652 -0.6875,-0.30276 -4.175,-1.72287 -7.75,-3.15581 -3.575,-1.43293 -7.5125,-3.02372 -8.75,-3.53508 -1.26418,-0.52238 -2.25,-1.79846 -2.25,-2.91246 0,-1.09049 0.9,-5.84256 2,-10.56016 1.1,-4.7176 2,-9.84493 2,-11.39407 v -2.81662 l -8.25,-1.74451 c -4.5375,-0.95948 -21.075,-5.0332 -36.75,-9.05271 -15.675,-4.01952 -29.71397,-7.7795 -31.1977,-8.35552 -1.48374,-0.57601 -3.4904,-2.25711 -4.45925,-3.73576 -1.18372,-1.80658 -2.33765,-7.46732 -3.51781,-17.25694 -1.13716,-9.43294 -1.4072,-14.7842 -0.76605,-15.18045 0.54461,-0.33659 13.8501,-1.16001 29.56775,-1.82981 l 28.57754,-1.21784 23.14776,9.59752 c 12.73127,5.27864 31.78324,13.22669 42.33772,17.66234 l 19.18996,8.06483 -5.93996,11.21245 C 676.67298,491.61976 674,497.14069 674,497.72163 c 0,0.58095 2.94327,1.85298 6.54059,2.82673 3.91588,1.05998 6.89811,1.40551 7.43149,0.86105 0.49,-0.50018 4.58343,-7.88441 9.09651,-16.40941 4.51309,-8.525 14.05489,-26.3 21.20401,-39.5 7.14912,-13.2 13.12802,-24.15309 13.28644,-24.34021 0.15842,-0.18711 11.00995,5.62737 24.1145,12.92107 13.10455,7.2937 29.67646,16.48224 36.82646,20.41897 7.15,3.93674 16.4875,9.07543 20.75,11.41932 l 7.75,4.26162 v 6.8163 6.81629 l -7.25,2.99047 c -3.9875,1.64475 -25.25,9.61035 -47.25,17.70133 -22,8.09098 -40.60536,15.04164 -41.34526,15.44592 -0.73989,0.40427 -3.59384,3.61816 -6.34211,7.14198 l -4.99687,6.40694 0.50068,5.78736 c 0.27537,3.18305 1.07377,6.47789 1.77421,7.32187 1.08942,1.31266 1.68476,0.62861 4.11793,-4.73158 1.56442,-3.44635 4.61549,-8.61188 6.78016,-11.47896 3.2052,-4.24525 4.91729,-5.53357 9.22351,-6.94052 2.90826,-0.95021 15.63775,-5.43158 28.28775,-9.95862 12.65,-4.52704 24.31993,-8.54567 25.93317,-8.93029 l 2.93317,-0.69931 -3.43317,4.00671 C 788.04493,510.08036 776.6,523.37365 764.5,537.41731 l -22,25.53394 -5.65539,0.0244 c -5.01777,0.0216 -6.12832,-0.37075 -9.85021,-3.4803 z M 606.1854,482.8249 c 4.46875,-1.92241 5.56659,-2.03858 9.44973,-1 2.41646,0.6463 4.86841,1.1751 5.44877,1.1751 0.58036,0 0.9114,-1.00767 0.73565,-2.23926 -0.22316,-1.56383 -1.82769,-2.95727 -5.31955,-4.61974 -2.75,-1.30927 -6.575,-2.59453 -8.5,-2.85614 -2.78442,-0.3784 -4.52028,0.20833 -8.49031,2.86975 -2.74468,1.83996 -5.14058,4.13503 -5.32424,5.10015 -0.20805,1.09328 0.54222,2.10603 1.99031,2.68661 1.27833,0.51252 2.91582,0.96038 3.63886,0.99524 0.72304,0.0349 3.58989,-0.91541 6.37078,-2.11171 z M 687,459.36499 c -1.925,-0.85619 -10.475,-4.4627 -19,-8.01444 -8.525,-3.55175 -19.1,-7.97545 -23.5,-9.83044 -4.4,-1.855 -14.47344,-6.12932 -22.38543,-9.4985 -7.91199,-3.36918 -15.57212,-6.36312 -17.02251,-6.6532 -1.45039,-0.29008 -16.52411,0.19869 -33.49717,1.08616 -16.97305,0.88746 -30.96296,1.48573 -31.08869,1.3295 -0.12573,-0.15624 -1.65352,-10.18407 -3.3951,-22.28407 -1.74158,-12.1 -3.36051,-22.9 -3.59762,-24 -0.23711,-1.1 -3.71215,-4.475 -7.7223,-7.5 L 518.5,368.5 535,367.83457 c 9.075,-0.36599 34.14081,-1.43107 55.70181,-2.36684 l 39.20181,-1.7014 7.79819,4.24396 c 4.289,2.33418 24.31726,13.46581 44.50723,24.73696 l 36.70904,20.49301 -2.0904,4.12987 C 715.67796,419.64156 712.16811,426 709.028,431.5 c -3.14011,5.5 -8.06171,14.3875 -10.9369,19.75 -2.87518,5.3625 -5.75939,9.73239 -6.40935,9.71086 -0.64996,-0.0215 -2.75675,-0.73967 -4.68175,-1.59587 z m 123.78169,-13.2178 c -6.44506,-3.65595 -13.95905,-7.87143 -16.69775,-9.36773 l -4.97945,-2.72054 5.7855,-10.27946 c 3.18202,-5.6537 7.36311,-12.97946 9.29131,-16.27946 1.92819,-3.3 5.02581,-10.16121 6.8836,-15.24714 2.91696,-7.98557 3.63919,-9.16416 5.29392,-8.63897 1.05388,0.33448 8.73455,3.75746 17.06815,7.60662 8.33361,3.84916 15.93528,7.57121 16.89261,8.27123 1.59107,1.16341 1.19855,1.99162 -4.56901,9.64051 -3.47029,4.60226 -8.20733,11.88703 -10.52677,16.18837 -2.31943,4.30135 -5.52783,11.50135 -7.12976,16 -1.60194,4.49866 -3.22658,8.96688 -3.61031,9.92938 -0.38374,0.9625 -0.98706,1.70374 -1.34072,1.64719 -0.35365,-0.0565 -5.91625,-3.09404 -12.36132,-6.75 z m -64.3613,-35.832 C 729.96417,401.14263 704.98354,387.3068 690.90786,379.56891 676.83219,371.83101 664.357,364.825 663.18521,364 l -2.13052,-1.5 21.72266,-15.70942 C 694.72481,338.1504 713.95,324.255 725.5,315.91192 c 11.55,-8.34308 24.4576,-17.58207 28.68356,-20.53109 l 7.68355,-5.36185 7.81645,3.36824 c 4.29904,1.85254 12.31644,5.47391 17.81644,8.04749 5.5,2.57358 15.31476,7.21435 21.81058,10.31281 l 11.81059,5.63357 -0.63963,2.55946 c -0.3518,1.4077 -3.70571,10.43445 -7.45314,20.05945 -3.74742,9.625 -9.73876,25.375 -13.31408,35 -3.57532,9.625 -7.22367,19.65323 -8.10745,22.28495 -0.88378,2.63172 -1.60687,5.36307 -1.60687,6.06966 0,0.7066 -2.94151,6.18238 -6.5367,12.16842 -3.59518,5.98603 -6.66851,11.01551 -6.82961,11.17661 -0.16111,0.16111 -13.75709,-7.2119 -30.2133,-16.38445 z m 95.6349,-31.41784 c -12.3446,-6.0244 -22.64519,-11.15391 -22.89021,-11.39893 -0.24502,-0.24502 3.3293,-9.9074 7.94292,-21.47196 C 833.43746,330.16097 835.91483,325 837.20115,325 c 0.93761,0 2.73842,0.43243 4.0018,0.96096 1.26338,0.52853 13.99705,5.07754 28.29705,10.10892 14.3,5.03138 34.53229,12.04374 44.96065,15.58302 10.42836,3.53929 19.08988,6.5643 19.24784,6.72225 0.15795,0.15796 -0.47633,2.07503 -1.40952,4.26017 l -1.6967,3.97299 -9.55113,1.14877 c -5.25313,0.63183 -13.60114,2.32279 -18.55114,3.75769 -4.95,1.4349 -13.05,4.54097 -18,6.90237 -4.95,2.36141 -11.40772,5.93358 -14.35049,7.93816 -2.94277,2.00459 -5.41777,3.61113 -5.5,3.5701 -0.0822,-0.041 -10.24963,-5.00366 -22.59422,-11.02805 z M 510.00428,355.25 c 0.002,-0.4125 1.37588,-2.775 3.05227,-5.25 1.67639,-2.475 3.92447,-6.16957 4.99572,-8.21016 1.56083,-2.97316 1.94998,-5.75417 1.95908,-14 0.007,-5.97483 -1.10664,-17.94794 -2.65469,-28.55182 -1.46632,-10.04409 -2.38201,-18.546 -2.03487,-18.89314 0.34713,-0.34714 17.85424,-5.75469 38.90468,-12.01679 21.05044,-6.2621 39.70174,-11.651 41.44733,-11.97534 l 3.17379,-0.5897 7.51595,23.36847 c 4.13377,12.85267 10.66372,33.33913 14.51101,45.52548 3.84728,12.18635 7.1369,22.98635 7.31026,24 0.28861,1.6876 -0.82311,1.90176 -13.18481,2.53988 -7.425,0.38328 -32.11716,1.62078 -54.87146,2.75 -22.7543,1.12921 -43.3418,2.05312 -45.75,2.05312 -2.4082,0 -4.37661,-0.3375 -4.37426,-0.75 z m 133.19116,-9.00936 c -1.26751,-4.25735 -9.96112,-31.07203 -19.31913,-59.58818 -9.35801,-28.51614 -16.85408,-52.00802 -16.65793,-52.20417 0.19614,-0.19615 10.68975,-3.91607 23.31912,-8.2665 12.62938,-4.35042 26.3375,-8.67999 30.4625,-9.62125 4.125,-0.94127 11.48455,-1.72684 16.35455,-1.74571 6.32835,-0.0245 9.25728,0.36843 10.26615,1.3773 0.77638,0.77638 3.64077,6.78826 6.36531,13.35973 4.01596,9.68633 5.77809,12.70535 9.30852,15.94814 2.39515,2.2 6.75727,5.30562 9.69361,6.90138 2.93634,1.59576 6.69956,4.52076 8.36273,6.5 1.66316,1.97924 5.7521,6.22634 9.08653,9.43799 3.33443,3.21166 8.42715,7.25552 11.31715,8.98636 2.89,1.73083 5.10438,3.59749 4.92083,4.14812 -0.18354,0.55063 -6.37309,5.2414 -13.75455,10.42392 -7.38146,5.18253 -28.70198,20.48815 -47.37895,34.0125 -18.67697,13.52435 -35.22534,25.37723 -36.77417,26.33973 -1.54883,0.9625 -2.91767,1.74579 -3.04188,1.74064 -0.12421,-0.005 -1.26288,-3.49265 -2.53039,-7.75 z M 927.5,339.57666 c -9.9,-3.47636 -29.25,-10.22249 -43,-14.99141 -13.75,-4.76891 -26.9125,-9.38765 -29.25,-10.26386 L 851,312.72828 v -28.2212 -28.22121 l 41.60582,-0.89293 41.60582,-0.89294 1.26877,2.5 c 0.69783,1.375 2.7314,6.775 4.51905,12 1.78765,5.225 7.24409,21.36309 12.12541,35.86242 4.88132,14.49934 8.87513,26.88436 8.87513,27.52229 0,0.63792 -3.3582,3.96233 -7.46266,7.38757 -4.10446,3.42525 -7.59196,6.20462 -7.75,6.17638 -0.15804,-0.0282 -8.38734,-2.89564 -18.28734,-6.372 z m -121,-45.96513 C 791.1,286.3244 772.09344,277.535 764.26319,274.07955 l -14.2368,-6.28265 9.11576,-13.39845 C 765.45676,245.11716 768.84051,241 770.15385,241 c 1.04277,0 11.89724,2.22017 24.12104,4.9337 12.22381,2.71354 26.50011,5.76922 31.72511,6.79039 l 9.5,1.85669 0.2666,26.20961 c 0.14664,14.41529 -0.0784,26.1783 -0.5,26.14004 -0.42163,-0.0383 -13.3666,-6.03177 -28.7666,-13.3189 z"
         id="path111"
         sodipodi:nodetypes="cssscssssssssssccssscssssssssssssssssssssssssscssssssssscsssssssscsssssssssssssssssscssssssssssscsssssssssssscsscssssssssssssssssscsssssscssssscssssssssssssssssssssssscsssscssssssscssscccsssssssscsssssssssssssscssssssscssssssssssssssssssssssssssssssssssssssssssssssssssssssssssssssssssssssssssssssssssssssssssssssssssssssssssssscsscscccssssssssssscsscsssssscssscsssssssssssssssssssssssssssssssscsssssssssscsssssssssscssssssscsscsssssssssscccsssscssssssscsscsssssssssssssssssssssssscsscsscssssssscssssssssssssssscssscssscssssssssssssssssscsssssscsscsssscsssssscssssssssssssssssscsssscccccssssssssscsssscsss" />
    </g>
    <path
       d="m 938.64745,793.4895 c -2.1246,-0.75737 -5.2188,-2.65012 -6.8761,-4.20611 -1.6574,-1.55599 -3.8468,-4.62908 -4.8653,-6.82908 -1.0698,-2.3106 -1.8612,-6.29517 -1.8739,-9.43428 -0.014,-3.49305 0.7187,-6.96433 2.0515,-9.71753 1.1404,-2.35579 3.9509,-5.6639 6.2454,-7.35136 2.2946,-1.68745 7.0991,-3.9811 10.6766,-5.09699 3.8871,-1.21248 10.8303,-2.26442 17.2545,-2.61418 l 10.75,-0.58528 v -4.89985 c 0,-2.69492 -0.7049,-6.26295 -1.5664,-7.92897 -0.8709,-1.68414 -3.0767,-3.66016 -4.9679,-4.45034 -1.8708,-0.78167 -5.7875,-1.42122 -8.7037,-1.42122 -2.9162,0 -8.4431,0.87067 -12.2821,1.93482 -3.8389,1.06415 -7.7211,2.21955 -8.6271,2.56754 -1.294,0.49706 -2.0198,-0.48913 -3.3851,-4.59948 l -1.7378,-5.2322 1.8708,-1.36798 c 1.029,-0.75239 4.8022,-2.30149 8.3851,-3.44244 3.7622,-1.19808 10.5549,-2.29315 16.0791,-2.59214 7.1787,-0.38854 10.9819,-0.10571 15.2455,1.13374 3.1244,0.90828 7.2077,2.99217 9.0741,4.63087 1.8664,1.63869 4.2218,4.6642 5.2342,6.72336 1.6079,3.27012 1.92,7.41388 2.4663,32.74391 0.344,15.95 0.8031,29.675 1.0202,30.5 0.3267,1.24123 -0.9853,1.5 -7.6052,1.5 h -8 l -0.3104,-3.75 c -0.1707,-2.0625 -0.5382,-3.75 -0.8167,-3.75 -0.2785,0 -2.0247,1.15813 -3.8805,2.57362 -1.8558,1.4155 -5.6556,3.4405 -8.444,4.5 -3.2553,1.23692 -7.4819,1.91067 -11.8091,1.88249 -3.7066,-0.0241 -8.4775,-0.66356 -10.602,-1.42092 z m 26.2282,-13.46659 c 2.2013,-1.123 4.7071,-3.04798 5.5684,-4.27772 1.0801,-1.54205 1.5661,-4.54016 1.5661,-9.66141 v -7.42551 l -8.7822,0.56897 c -4.8302,0.31294 -10.6535,1.3177 -12.9405,2.23281 -2.2871,0.91512 -4.8601,2.73485 -5.7178,4.04387 -0.8577,1.30901 -1.5595,4.22544 -1.5595,6.48095 0,2.25551 0.4854,5.00796 1.0787,6.11656 0.5933,1.1086 2.5058,2.66279 4.25,3.45374 1.954,0.88608 4.9684,1.25989 7.8529,0.97383 2.5749,-0.25534 6.4827,-1.38308 8.6839,-2.50609 z m 59.89855,13.93569 c -1.5047,-0.4531 -4.2853,-1.78139 -6.179,-2.95176 -2.0273,-1.25292 -4.3975,-4.06567 -5.7641,-6.84024 l -2.3209,-4.71229 -0.3395,-24.75 -0.3396,-24.75 h -6.4104 -6.41055 v -6.5 -6.5 h 6.46385 6.4638 l 0.2862,-9.7154 0.2862,-9.7154 7.5,-1.74361 c 4.125,-0.95898 8.0625,-1.76205 8.75,-1.7846 0.9299,-0.0305 1.25,2.90381 1.25,11.45901 v 11.5 h 11 11 v 6.5 6.5 h -11.0514 -11.0513 l 0.3013,23.47415 0.3014,23.47415 2.138,2.13606 c 1.2883,1.28715 3.8715,2.32353 6.5,2.60777 2.3991,0.25943 6.2771,0.0321 8.6179,-0.50524 2.3407,-0.53731 4.4332,-0.68667 4.65,-0.33191 0.2168,0.35476 0.7072,3.16176 1.0897,6.23777 l 0.6956,5.59276 -5.7624,1.15724 c -3.1693,0.63649 -8.7248,1.11857 -12.3456,1.0713 -3.6208,-0.0473 -7.8144,-0.45667 -9.3192,-0.90976 z m 58.6187,0.0468 c -1.7145,-0.40931 -5.1772,-1.74138 -7.6949,-2.96015 -2.5176,-1.21878 -6.4388,-4.07723 -8.7137,-6.35212 -2.2749,-2.27489 -4.9652,-5.76125 -5.9785,-7.74746 -1.0133,-1.98622 -2.5518,-6.34926 -3.419,-9.69566 -0.8671,-3.3464 -1.5766,-9.00951 -1.5766,-12.58469 0,-3.64899 0.8668,-9.30666 1.9761,-12.89808 1.0868,-3.51876 3.3403,-8.45736 5.0076,-10.97465 1.6674,-2.51729 4.7157,-5.73968 6.774,-7.16087 2.0583,-1.42118 5.9923,-3.58437 8.7423,-4.8071 3.3823,-1.50386 7.6922,-2.3696 13.3212,-2.67585 6.0202,-0.32753 10.1285,0.0365 14.8568,1.31636 3.8857,1.05182 8.418,3.20126 11.1787,5.30147 2.5538,1.94282 5.2166,4.24235 5.9174,5.11006 0.7007,0.86772 2.3464,3.61767 3.657,6.111 1.3107,2.49333 2.9395,7.36185 3.6196,10.81893 0.744,3.78178 1.0054,9.56177 0.6562,14.51009 -0.3315,4.69814 -1.5348,10.77528 -2.8063,14.1737 -1.595,4.26309 -3.8094,7.52314 -7.8132,11.50262 -4.4868,4.45951 -6.9212,5.98756 -12.3584,7.75738 -4.8007,1.56261 -9.0201,2.17416 -14.5,2.10159 -4.2509,-0.0563 -9.1318,-0.43725 -10.8463,-0.84657 z m 19.7482,-13.65797 c 1.447,-0.7267 3.8056,-2.71735 5.2414,-4.42369 1.4358,-1.70633 3.3411,-5.61576 4.2342,-8.68763 1.1486,-3.95101 1.4971,-8.10106 1.1913,-14.1835 -0.2892,-5.75057 -1.1159,-10.12458 -2.4962,-13.20675 -1.1385,-2.54198 -3.7305,-5.87961 -5.7805,-7.44326 -2.838,-2.16463 -5.0988,-2.93477 -9.5632,-3.2577 -4.5953,-0.33239 -6.8245,0.0506 -10.4163,1.78932 -3.1739,1.53642 -5.3529,3.54834 -7.1331,6.58607 -1.506,2.56981 -2.991,7.25578 -3.6003,11.36095 -0.7302,4.91964 -0.7154,8.81289 0.05,13.1575 0.5978,3.39373 2.038,8.13494 3.2003,10.53602 1.1623,2.40109 3.4115,5.28995 4.9981,6.41971 1.5866,1.12975 4.8104,2.41582 7.1641,2.85793 2.3537,0.44211 5.6295,0.58164 7.2795,0.31006 1.65,-0.27157 4.1839,-1.08834 5.6309,-1.81503 z m -272.38095,12.86793 -5.75,-0.36082 V 754.864 716.87347 l 8.25,0.29044 8.25,0.29044 0.2619,38.25 0.2619,38.25 -2.7619,-0.18908 c -1.519,-0.104 -5.3494,-0.35146 -8.5119,-0.54991 z m 48,-0.0101 -22.75,-0.28851 v -4.90463 c 0,-4.02068 0.5988,-5.68439 3.3227,-9.23122 1.8275,-2.37963 9.1079,-11.7516 16.1787,-20.8266 7.0708,-9.075 14.8553,-18.8625 17.2988,-21.75 l 4.4428,-5.25 -4.8715,-0.22018 c -2.6793,-0.12111 -6.8965,-0.28078 -9.3715,-0.35483 -2.475,-0.074 -9.1125,-0.19996 -14.75,-0.27981 l -10.25,-0.14517 v -6.5 -6.5 h 30.5 30.5 v 5.45052 5.45053 l -13.577,17.29947 c -7.4673,9.51472 -16.4673,20.96415 -20,25.44318 -3.5326,4.47904 -6.423,8.41654 -6.423,8.75 0,0.33347 9.225,0.6063 20.5,0.6063 h 20.5 v 7 7 l -9.25,-0.23027 c -5.0875,-0.12664 -19.4875,-0.36009 -32,-0.51877 z m 272.50005,0.007 -7.25,-0.34511 v -25.79919 c 0,-14.18955 -0.2942,-31.26984 -0.6537,-37.95619 l -0.6537,-12.15746 h 8.0371 8.037 l 0.603,2.25 c 0.3317,1.2375 0.6091,3.7125 0.6166,5.5 0.01,1.7875 0.2399,3.25 0.5163,3.25 0.2764,0 2.1889,-1.87033 4.25,-4.1563 2.0611,-2.28596 5.5474,-4.97608 7.7474,-5.97804 2.4406,-1.11151 6.3392,-1.82433 10,-1.82839 3.3,-0.004 6.5962,0.37133 7.3248,0.8333 1.004,0.63652 1.16,2.50969 0.6442,7.73468 l -0.6807,6.89475 h -8.1441 c -6.8117,0 -8.7632,0.38485 -11.9276,2.3522 -2.0809,1.29371 -4.8934,3.98567 -6.25,5.98213 l -2.4666,3.62994 v 25.26786 c 0,19.6536 -0.2777,25.22372 -1.25,25.06917 -0.6875,-0.10928 -4.5125,-0.35399 -8.5,-0.54381 z M 823.01015,690.95431 v -9 h 10 10 v 9 9 h -10 -10 z"
       style="display:inline;fill:#7f7f7f;fill-opacity:1"
       id="path1"
       sodipodi:nodetypes="sssssssscssssssscssssssssscssssssssscssssssssssscccccccccccssscccccccccssssscssssssssssssssssssssssssscssssssssssssssccscccccccssccsssscssscccccccsssscccsscccsscccscssscsscssscssccccccccccc" />
    <path
       d="m 227.92364,706.10441 c -2.0878,-0.7662 -5.003,-2.34252 -6.4782,-3.50292 -1.4752,-1.1604 -3.4704,-3.31131 -4.4337,-4.77979 -0.9633,-1.46848 -2.2198,-4.92582 -2.7921,-7.68298 -0.7151,-3.44462 -0.72,-6.70424 -0.016,-10.41859 0.5659,-2.98428 2.2015,-6.94789 3.6514,-8.84881 1.4444,-1.89378 4.6892,-4.75153 7.2106,-6.35055 2.5214,-1.59903 6.1749,-3.36601 8.1189,-3.92662 1.944,-0.56061 8.7352,-1.51575 15.0915,-2.12254 l 11.557,-1.10324 -0.3612,-3.11497 c -0.1986,-1.71323 -0.5683,-4.11929 -0.8214,-5.34678 -0.2532,-1.2275 -1.7815,-2.915 -3.3962,-3.75 -1.6521,-0.85437 -5.4717,-1.5106 -8.7355,-1.50083 -3.1898,0.01 -8.9496,0.72667 -12.7996,1.5936 -3.85,0.86692 -7.9536,1.80029 -9.119,2.07415 -1.8896,0.44406 -2.3352,-0.29632 -4.118,-6.84359 -1.0996,-4.03784 -1.8155,-7.66536 -1.5909,-8.06116 0.2246,-0.39581 3.4825,-1.63517 7.2398,-2.75413 3.7573,-1.11897 10.4892,-2.52674 14.9597,-3.12839 5.838,-0.78566 10.3818,-0.79064 16.1255,-0.0177 4.3984,0.59193 9.7097,1.94994 11.8029,3.0178 2.0932,1.06786 5.2242,3.39238 6.9579,5.16559 1.7336,1.77322 3.9326,5.29682 4.8867,7.83023 1.4894,3.95487 1.7573,8.83002 1.895,34.47772 l 0.1603,29.87152 -5.1,-0.61283 c -2.8049,-0.33706 -7.1979,-0.61675 -9.7621,-0.62153 l -4.6621,-0.009 -0.6647,-3.93472 -0.6648,-3.93472 -4.4654,3.40854 c -2.456,1.8747 -6.7781,4.09532 -9.6046,4.93472 -2.8266,0.8394 -7.6451,1.49447 -10.7077,1.45572 -3.0627,-0.0388 -7.2767,-0.69736 -9.3645,-1.46356 z m 25.9294,-17.09634 c 1.8896,-0.8967 4.0951,-2.57183 4.9011,-3.72251 0.8767,-1.25165 1.4654,-4.41319 1.4654,-7.86964 v -5.77749 l -2.75,-0.10132 c -1.5125,-0.0557 -4.325,-0.0315 -6.25,0.0538 -1.925,0.0853 -4.8963,0.59397 -6.6029,1.13034 -1.7067,0.53638 -4.1715,2.11254 -5.4773,3.50258 -1.6923,1.80139 -2.3743,3.6908 -2.3743,6.57774 0,3.0391 0.5837,4.52308 2.338,5.94363 1.5179,1.22913 3.9124,1.89324 6.8262,1.89324 2.4684,0 6.0341,-0.73366 7.9238,-1.63036 z m 125.5966,17.13887 c -2.8984,-0.81273 -6.4984,-2.12567 -8,-2.91766 -1.5015,-0.79199 -4.2622,-2.5858 -6.1348,-3.98623 -1.8726,-1.40044 -4.864,-4.59879 -6.6476,-7.10746 -1.7836,-2.50866 -4.0074,-7.38554 -4.9419,-10.83751 -1.2383,-4.57481 -1.6049,-9.11452 -1.3523,-16.74571 0.3116,-9.41587 0.6735,-11.13305 3.5964,-17.06425 1.881,-3.81693 5.177,-8.37116 7.8249,-10.81186 2.5162,-2.31936 6.9037,-5.28155 9.7501,-6.58264 2.8463,-1.3011 8.4944,-2.87925 12.5513,-3.507 5.5956,-0.86586 9.3371,-0.85466 15.5,0.0464 4.4681,0.65326 9.6354,1.81928 11.4829,2.59114 2.2217,0.92823 3.1722,1.89025 2.8073,2.84132 -0.3035,0.79086 -0.8545,4.11321 -1.2244,7.38301 -0.3699,3.2698 -1.0385,6.5371 -1.4857,7.26067 -0.6685,1.08164 -1.3148,1.0851 -3.6347,0.0195 -1.5519,-0.71286 -6.2654,-1.53608 -10.4744,-1.82938 -6.55,-0.45641 -8.3145,-0.21302 -12.2431,1.68879 -2.5246,1.22214 -5.4308,3.42094 -6.4583,4.88624 -1.0275,1.46529 -2.4309,4.39826 -3.1187,6.51771 -0.6878,2.11944 -1.2338,6.76149 -1.2133,10.31567 0.027,4.69637 0.6725,7.74213 2.3618,11.14646 1.6846,3.39494 3.555,5.35779 6.7951,7.13101 3.5466,1.94091 5.8284,2.42577 11.0386,2.34548 3.6123,-0.0557 8.4911,-0.61909 10.8418,-1.25207 2.3507,-0.63297 4.8576,-1.37481 5.5709,-1.64853 0.912,-0.34997 1.6466,1.37297 2.4752,5.80538 0.6481,3.46668 1.411,7.48987 1.6953,8.94041 0.4693,2.39456 0.075,2.7968 -4.2878,4.36929 -3.152,1.13617 -8.7605,1.8605 -16.3047,2.10573 -8.1071,0.26353 -13.0548,-0.0622 -16.7699,-1.10386 z m 69.6624,0.042 c -2.5342,-0.69885 -6.9526,-2.54699 -9.8189,-4.10699 -2.8662,-1.55999 -6.5312,-4.33959 -8.1443,-6.17687 -1.6132,-1.83728 -4.0579,-5.56036 -5.4328,-8.27351 -1.3748,-2.71315 -3.0037,-8.32154 -3.6197,-12.46309 -0.8296,-5.57823 -0.8264,-9.53894 0.012,-15.28008 0.679,-4.64745 2.3462,-10.23607 4.1646,-13.96007 1.9673,-4.02888 4.8612,-7.81136 8.2394,-10.76908 2.8638,-2.50745 7.4649,-5.40497 10.2245,-6.43893 2.7597,-1.03396 7.4926,-2.18915 10.5175,-2.56709 3.1351,-0.39171 8.2689,-0.18506 11.9399,0.48064 3.5421,0.64229 7.8092,1.85565 9.4826,2.69635 1.6733,0.8407 4.767,3.16647 6.8749,5.16836 2.1078,2.0019 4.5057,4.92343 5.3286,6.49229 0.823,1.56886 2.1564,4.94386 2.9631,7.5 0.8068,2.55614 1.7368,9.03503 2.0668,14.39753 l 0.5999,9.75 h -21.5204 c -11.8363,0 -22.9597,0.28785 -24.7188,0.63967 -2.8514,0.57027 -3.1286,0.92286 -2.5555,3.25 0.3536,1.43568 1.4066,3.96033 2.3401,5.61033 0.9458,1.67176 3.756,4.02536 6.3471,5.3159 3.772,1.87869 6.2323,2.31002 13.0324,2.28478 5.3656,-0.0199 10.5939,-0.71936 14.5268,-1.94342 l 6.1443,-1.91231 1.041,4.8544 c 0.5726,2.66992 1.3224,6.61363 1.6663,8.7638 l 0.6251,3.90939 -3.3596,1.0612 c -1.8478,0.58366 -6.0298,1.53484 -9.2933,2.11373 -3.2635,0.57889 -10.2385,1.01229 -15.5,0.96311 -5.2615,-0.0492 -11.6397,-0.6612 -14.1739,-1.36004 z m 23.1075,-50.53027 c 0,-1.63887 -0.7308,-4.80616 -1.624,-7.03842 -0.9787,-2.4462 -2.7468,-4.63933 -4.4503,-5.52024 -1.5545,-0.80387 -4.5362,-1.4599 -6.626,-1.45784 -2.0898,0.002 -5.2403,0.88215 -7.0011,1.95578 -1.7608,1.07362 -3.8352,3.20944 -4.6097,4.74626 -0.7745,1.53682 -1.7101,4.05241 -2.0791,5.59021 -0.3691,1.53779 -0.4057,3.22529 -0.081,3.75 0.325,0.52583 6.3979,0.95401 13.5306,0.95401 h 12.9406 z m -333.75,50.27404 -3.25,-0.421 v -55.29203 -55.29204 l 6.75,-0.6375 c 3.7125,-0.35062 12.375,-0.6268 19.25,-0.61373 6.875,0.0131 15.85034,0.45857 19.94521,0.98999 4.33399,0.56245 10.01239,2.16756 13.58859,3.84105 3.3789,1.58117 7.7108,4.44227 9.6266,6.358 1.9157,1.91574 4.4647,5.5713 5.6643,8.12346 1.1997,2.55217 2.6121,7.67988 3.1387,11.39491 0.6156,4.34249 0.6088,9.21582 -0.019,13.64669 -0.5371,3.79064 -1.8292,8.81969 -2.8713,11.17567 -1.0422,2.35597 -3.7049,6.24727 -5.9172,8.64732 -2.2123,2.40005 -6.1163,5.40949 -8.6755,6.68764 -2.5593,1.27814 -6.9768,2.95132 -9.8168,3.71817 -2.83997,0.76685 -9.99098,1.68404 -15.89113,2.0382 l -10.72754,0.64393 -0.27246,17.59849 -0.27247,17.5985 -8.5,0.10764 c -4.675,0.0592 -9.9625,-0.0818 -11.75,-0.31336 z m 38.25,-55.39095 c 2.2,-0.59703 5.4669,-2.48706 7.25978,-4.20006 1.79282,-1.71301 3.70282,-4.70952 4.24442,-6.65891 0.5416,-1.9494 0.9872,-5.81151 0.9902,-8.58247 0,-3.26248 -0.7874,-6.59002 -2.2444,-9.44146 -1.2375,-2.42184 -3.49986,-5.31428 -5.02747,-6.42764 -2.23023,-1.62546 -4.74232,-2.10322 -12.75,-2.42485 l -9.97253,-0.40055 v 19.6163 19.61631 l 6.75,-0.006 c 3.7125,-0.003 8.55,-0.49405 10.75,-1.09109 z m 122.25,55.38042 -2.75,-0.41659 V 666.5358 627.56601 l 9.75,0.28621 9.75,0.28621 0.8457,5.62997 0.8457,5.62997 5.1543,-5.29388 c 4.0976,-4.20855 6.353,-5.63935 11.0009,-6.97902 3.8999,-1.12404 7.3129,-1.46528 10.25,-1.02482 l 4.4034,0.66033 -0.015,9.18872 c -0.01,5.0538 -0.3459,9.66358 -0.75,10.24395 -0.4041,0.58037 -4.1097,1.05768 -8.2347,1.06068 -5.7307,0.004 -8.4803,0.51535 -11.6555,2.16688 -2.2855,1.18878 -5.098,3.35966 -6.25,4.82418 l -2.0948,2.66276 v 24.24851 24.24851 l -2.25,0.60297 c -1.2375,0.33164 -5.175,0.5417 -8.75,0.4668 -3.575,-0.0749 -7.7375,-0.32364 -9.25,-0.55276 z m 206.25,-58.28375 v -58 h 11.5 11.5 v 58 58 h -11.5 -11.5 z"
       style="display:inline;fill:#155732;fill-opacity:1;stroke:#155732;stroke-width:1;stroke-dasharray:none;stroke-opacity:1"
       id="path1-2"
       transform="translate(275.95305,88.128064)" />
  </g>
  <rect
     style="display:none;fill:#000000;fill-opacity:0;stroke:#155732;stroke-width:2.9;stroke-dasharray:none;stroke-opacity:1"
     id="rect112"
     width="1025.8134"
     height="863.99487"
     x="1.45"
     y="1.45" />
</svg>
